/* XPM */
static char *a18bf83518bb42abf6743dde767b5a59[] = {
/* columns rows colors chars-per-pixel */
"64 64 225 2 ",
"   c #795929",
".  c #795C32",
"X  c #674C25",
"o  c #7E6230",
"O  c #87662B",
"+  c #9B742D",
"@  c #856735",
"#  c #9B7D34",
"$  c #9B7C3B",
"%  c #957738",
"&  c #917032",
"*  c #A27D38",
"=  c #A47A2C",
"-  c #947D43",
";  c #997B42",
":  c #9D8138",
">  c #A5833C",
",  c #AB853D",
"<  c #AC8B3C",
"1  c #A68736",
"2  c #B48A3C",
"3  c #B6963A",
"4  c #AB943A",
"5  c #BBA73C",
"6  c #C7A63C",
"7  c #C9B63D",
"8  c #D5B63F",
"9  c #D2A439",
"0  c #9C8445",
"q  c #9C8956",
"w  c #A38443",
"e  c #A48A45",
"r  c #AC8C43",
"t  c #A58A4A",
"y  c #AB8D4C",
"u  c #A48648",
"i  c #B38D44",
"p  c #B48D45",
"a  c #AC924C",
"s  c #AB9546",
"d  c #B49245",
"f  c #BB9444",
"g  c #B3934B",
"h  c #BA964B",
"j  c #B59A4C",
"k  c #BB9B4B",
"l  c #B99A45",
"z  c #A58D52",
"x  c #AB9353",
"c  c #AA9758",
"v  c #B29552",
"b  c #B59B54",
"n  c #BB9C53",
"m  c #B49B5A",
"M  c #B89B59",
"N  c #B08D57",
"B  c #BAA548",
"V  c #BDA354",
"C  c #BDA35B",
"Z  c #BCAB5C",
"A  c #B8A557",
"S  c #BEB157",
"D  c #AC9A64",
"F  c #B69E63",
"G  c #A39271",
"H  c #BDAC65",
"J  c #B8A667",
"K  c #BBAB73",
"L  c #BEB373",
"P  c #B6AB6E",
"I  c #C39D4C",
"U  c #C59B47",
"Y  c #C19E54",
"T  c #C7A748",
"R  c #D3AC4D",
"E  c #D7AA46",
"W  c #C6B648",
"Q  c #D7B64A",
"!  c #C3A455",
"~  c #C4AB53",
"^  c #CCAA53",
"/  c #C4A55B",
"(  c #C4AA5B",
")  c #CBAC5C",
"_  c #CAA657",
"`  c #D3AE54",
"'  c #D2AD5A",
"]  c #DAAF54",
"[  c #CBB25D",
"{  c #C7B758",
"}  c #D4B253",
"|  c #DBBA55",
" . c #D4B25C",
".. c #D9B957",
"X. c #E2BB5A",
"o. c #E2B84B",
"O. c #C3AB63",
"+. c #CBAC62",
"@. c #C4AA68",
"#. c #CDB364",
"$. c #CCB46B",
"%. c #CBBB6C",
"&. c #C5B568",
"*. c #D2B564",
"=. c #D6BA65",
"-. c #DABA63",
";. c #D4BB6B",
":. c #DABD6B",
">. c #D4B668",
",. c #CCB572",
"<. c #C6BA73",
"1. c #C4BA7B",
"2. c #CCBB7A",
"3. c #C7B774",
"4. c #D4BC72",
"5. c #D6BB77",
"6. c #C6AA74",
"7. c #E1BE64",
"8. c #D7C358",
"9. c #D3C451",
"0. c #E7C65C",
"q. c #F2CD4B",
"w. c #CDC268",
"e. c #DCC26D",
"r. c #D9C568",
"t. c #CEC278",
"y. c #DCC373",
"u. c #DCCA74",
"i. c #DCC37A",
"p. c #DCCC7C",
"a. c #D4C578",
"s. c #DDD279",
"d. c #E4C364",
"f. c #E3C36C",
"g. c #EACC6B",
"h. c #E7C966",
"j. c #F3CC64",
"k. c #EBD36B",
"l. c #F2D66B",
"z. c #E2C572",
"x. c #E3CB74",
"c. c #EBCC73",
"v. c #E3CB7B",
"b. c #E5C87A",
"n. c #ECDA74",
"m. c #E4D37C",
"M. c #ECD47B",
"N. c #EDDD7B",
"B. c #E7D576",
"V. c #F4DB7B",
"C. c #F3D875",
"Z. c #F4E37C",
"A. c #F8E679",
"S. c #F4E474",
"D. c #BCB190",
"F. c #C7BB84",
"G. c #D4BD8B",
"H. c #CCC383",
"J. c #CDC58B",
"K. c #DDCC83",
"L. c #DDCE8B",
"P. c #D6C787",
"I. c #DCD38A",
"U. c #DCD286",
"Y. c #D5CA95",
"T. c #DCD392",
"R. c #DDD794",
"E. c #CEC395",
"W. c #E3CD83",
"Q. c #E3CA87",
"!. c #E5D484",
"~. c #EAD483",
"^. c #E5DA83",
"/. c #ECDB84",
"(. c #E4D48C",
"). c #EBD58B",
"_. c #E4DA8D",
"`. c #ECDA8C",
"'. c #F3DD8B",
"]. c #F3DA83",
"[. c #E3D593",
"{. c #E5DB94",
"}. c #ECDC93",
"|. c #E7DA9A",
" X c #F1DD92",
".X c #F3DF9C",
"XX c #E1CD9A",
"oX c #EDE189",
"OX c #F3E484",
"+X c #F2E48C",
"@X c #F4E98B",
"#X c #FAED8B",
"$X c #F9E985",
"%X c #FDF389",
"&X c #EDE394",
"*X c #EDE49B",
"=X c #EFE89D",
"-X c #F3E493",
";X c #F4EA94",
":X c #F9EC94",
">X c #F4EC9C",
",X c #F6E89C",
"<X c #FAF19C",
"1X c #FCF497",
"2X c #DCD3A7",
"3X c #D5CEB0",
"4X c #E7DCA8",
"5X c #ECE5A4",
"6X c #EDE7A9",
"7X c #F3ECA4",
"8X c #F2EDAA",
"9X c #F5E6A4",
"0X c #F6F1A4",
"qX c #FAF3A4",
"wX c #F6F2AA",
"eX c #F8F4AB",
"rX c #FEF9A8",
"tX c #ECE7B6",
"yX c #F1EEBB",
"uX c #F2ECB4",
"iX c #F6F3B5",
"pX c #F8F5B3",
"aX c #F5F2BA",
"sX c #F8F5B8",
"dX c None",
/* pixels */
"dXdXdXdXdXdXdXdXdXdXdXdXdXdXdXdXdXdXdXdXdXdXdXdXdXdXdX).`././.^./././.M.!.dXdXdXdXdXdXdXdXdXdXdXdXdXdXdXdXdXdXdXdXdXdXdXdXdXdXdX",
"dXdXdXdXdXdXdXdXdXdXdXdXdXdXdXdXdXdXdXdXdXdXdX}. X_.K.t.<.H F A D J H <.t.s.^./.M.dXdXdXdXdXdXdXdXdXdXdXdXdXdXdXdXdXdXdXdXdXdXdX",
"dXdXdXdXdXdXdXdXdXdXdXdXdXdXdXdXdXdXdXdX X&XU.<.c e @ : O = + # + # = # * % e m %.p.M.b.dXdXdXdXdXdXdXdXdXdXdXdXdXdXdXdXdXdXdXdX",
"dXdXdXdXdXdXdXdXdXdXdXdXdXdXdXdXdXdX X_.<.z % + + 1 2 k ! / ) +. .) ' k I 2 f + r % m $.m.x.dXdXdXdXdXdXdXdXdXdXdXdXdXdXdXdXdXdX",
"dXdXdXdXdXdXdXdXdXdXdXdXdXdXdXdX X_.L % : = < ^ #.e.4.#.O.C b b b n / ( $.;.:. .Y 2 r * a O.x.e.dXdXdXdXdXdXdXdXdXdXdXdXdXdXdXdX",
"dXdXdXdXdXdXdXdXdXdXdXdXdXdX}.}.<.- : 1 I =.4.$.m z y a M C b V y v n 2 U h g / *.:.' U $ r e #.u.*.dXdXdXdXdXdXdXdXdXdXdXdXdXdX",
"dXdXdXdXdXdXdXdXdXdXdXdXdX&XU.x + 1 ^ 4.e.C y y C A { W : 5 : 5 r B 5 2 ` ~ / p v h / >.' p + y a ;.;.dXdXdXdXdXdXdXdXdXdXdXdXdX",
"dXdXdXdXdXdXdXdXdXdXdXdX&X1.& : U e.y.C f I { l 4 5 5 W < B 1 6 A 1 6 3 ..B { 6 V k r g ! >.' * , r [ :.dXdXdXdXdXdXdXdXdXdXdXdX",
"dXdXdXdXdXdXdXdXdXdX X}.J % 1 [ y.O.l ` Q E 9 7 4 T 4 1 1 : * 2 : : : 2 _ s r 7 1 B m v k r ( >.h + i / :.C dXdXdXdXdXdXdXdXdXdX",
"dXdXdXdXdXdXdXdXdX}._.c : 3 ;.e.m ( E } 9.8 E 6 1 i e v ( ' *. . . .' } _ * * 1 : T e A B V l k *._ > * ! =.n dXdXdXdXdXdXdXdXdX",
"dXdXdXdXdXdXdXdX X_.c > k y.&.M { W T R 5 3 f ] *.r.=.{ k d i y r r d l _ ` ' _ f 1 t V B # < j d #.) p % k *.v dXdXdXdXdXdXdXdX",
"dXdXdXdXdXdXdXdX}.F * B x.&./ Z 5 7 W A 1 ^ r.r.V < i h I T +.3XP.I Y Y h p p I ] R f : 3 r r Z 5 < _ *.i e n +.dXdXdXdXdXdXdXdX",
"dXdXdXdXdXdXdX&XP : S m.&.+.~ W ` B < n :.r.j d T  .5.:.} ` 4.5X>., / +.5.6.Y M g f R R i * C B ; b g +.*.* r / ( dXdXdXdXdXdXdX",
"dXdXdXdXdXdX X1.0 ~ m.H { w.W W B g =.u.Z j ] 0.0.z.tXQ.k ' _ 2 = w _ ,.tXP.h @./ n v U ] U s t H 9.3 R 4.*.% * ) m dXdXdXdXdXdX",
"dXdXdXdXdX}.I.e j s.t.z h.{ A B ~ x.y.j ' 0.j.c.h.7./ p a ) ) C u / ) +._ , y +.$.+./ / Y } R r y 5 T o.P.W.! u w +.u dXdXdXdXdX",
"dXdXdXdXdX*Xq t a.K.t.H n.n.w.S !.w.A h.k.k.b.tX:.h.^ h / =.=.p.5.*.*.$.N u / XXXXh +.+.) / R R k 2 o.o.L.-Xe.g r ! C dXdXdXdXdX",
"dXdXdXdX X1.y ;._.t./.+./.@XOXoXt.S n.S.S.n.x.O.i r.k.!.x.b.v.v.m.v.i.P.2.*.$.$.Y w +.>.*.+./ ` } R | ] XX:Xg.>.w % _ u dXdXdXdX",
"dXdXdXdXR.q b (.a.&X].*.v.:X;Xt.&.OXOXA.S.S.n.~ j [ W.K.y.(.W.6.>.y.p.i.K.5.m ; u n ;.>.>.>.*.+.....} ) ).#X].f.) y a ! dXdXdXdX",
"dXdXdX}.K a a.R.W.].0.I $.&XI.3.@X#X#X#X#X@XOXA.n.[ =.P.P.G.Q.Q.5.,.,.5.,.Y u 4.z.z.e.5.:.>.:.>.#.8.` #.] j.V.c.f.r w / w dXdXdX",
"dXdXdX[.c O.{.2.z.] v v 2._.L &X0XqX<X>X&XoXN.#X@XN.2.XXQ.Q.b.Q.4.5.5.G.2.u H ~.].~.!.z.:.z.:.:.=.*.X.! i p X.f.b.#.w r v dXdXdX",
"dXdX_.F.u 2.[.$.x m 2.&X=X1._.0XqXeX8X|.+Xl.b.~.@X@X3.5.i.p.(.i.6.>.:.:.$.z 5.OX X|.'.~.4.b.:.z.z.:.r.....} I m ).x.y v / % dXdX",
"dXdX|.D H |.2.) <.&X<XqXI.H.wX0XqX9X4XG.B.| ~.!.v.;XW.+.[ [ ) / F M / +.F J }..X6X9X Xv.b.-X,.f.c.c.f.h.h.j.X.+.i.y.) % n r dXdX",
"dXm.T.u &.{.m 3.=XrXeX0X1.=XeX0XwX.X/.N ' U +.+X~.p.(.L 3.1.H.P.P.F.2.1.J 2.|..X9Xa.M a #.#Xu.y.].M.V.n.g.l.l.j. .5.y.v v n dXdX",
"dX~.F.m L.J.K >XrXrXeX_.H.eXeXeX>X'.e.D 4XQ.,./.;Xx.|.`.4.L 5X8X7X9XT.L.[.(. X9Xy.q t.p.p.OX..w.OXOXOXN.k.n.S.l.l.f.u.n ; / @ dX",
"dX}.J m {.L =X0XrXrXeXH.=XwXeXeX9X].-.x ,.5.`.!.:X-X-Xk.c Y.6XuXtX6XY.1.~.]..X XV P.;X=X}.Z.R p.@X@X@XoXN.n.A.A.S.C.n.%.x ! $ dX",
"dX[.D K *XJ.*Xu.s.0X=XH.eXpXeXeX7X~.n.J D 2.;X-X+X@X#Xd.6.9XuXyX4X2XtXXXb.$X9Xj.J *X5X*X'.l.k }.;X;X@X@X^.n.@XS.N.n.B.s.0 V y dX",
"dXT.c 5.R.R.w.%.w.^.R.R.eXeXeXeX7X}.#X`.[.}.0.u.1X*XOXx.@.F.tXtX3.D.Y.Q.C.,X:X] F.|.}.V.$Xj.O.=X;X;X;X%X@X^.N.{ 8.B B.^.m c b dX",
"b.J.c H.T.{.w.w.S R.J.5XeXeXeXeX8X&XA.C.k.0.R J /.1X+Xd.D 2X9X|./ D.3XP.V.<XC.I 2X[.j.S.A.q.O.L.0X=X>X;X%XoX^.s.W 8.s.oXA x / . ",
"i.H.C T.T.{.{ S L 7XJ.0XwXeXeXeX|.~. .U T ! D 4Xi.@X%XS.,.4X.Xi.' G 3XXXOX<Xj.F tX2XK Z o.8 S P =X0X0X0X>X&XU.^.S B t.oXJ q S . ",
"v.1.c L.[._.A Z &.=XJ.0XeXeX0XeX{.L P J.H.J.4X6XL.u.%X%Xn.K.G.,.,.N D.XX'.:X0.K tXtX4X2XK c D R.wXwX0X0X0X=XI.^.S r.w.oXL c &.o ",
"v.1.O.[.T.^.{ p.&X=XJ.wX0XeXqXeX0X8X8X8X8X8X8XuX[.c.M.:X%Xi.|.|.'.4.D Q.+X:XX.D.tXyXyXaXtX4X6XaXiXiXwXwXwX7XI.=Xw.W w.;X3.q &.o ",
"v.<.x T._.s.W { t.=XI.0XqXeXqX0X0XwXwXwX8X8X8X6XXXC.c.OXOXL.iX[.).~.M b.+X#X] F.yXyXyXaXaXaXaXiXiXiXiXiXpXwXT.=Xw.W %._.1.D 3.@ ",
"s.<.@._._.s.S t.t.*XU.>X0X0X0X0XwXwXwX8X8X8X6X6X|.V.A.M.K.&X*XQ.-.f.O.4.-X#X] E.yXyXyXyXyXaXsXyXsXiXsXsXiXuXT.*XS L w.{.L q L @ ",
"u.L x I._.U.{ S w.&XI.0X0X0X0X0X0X7X7XwX7X8X8X6XXXV.%XB.,.>X9Xm.v.-X,.#.#X#X] E.tXyXyXyXaXaXsXsXiXiXiXpXiXuXT.*Xw.r.S R.1.D 1.o ",
"y.t.H I._.s.A w.&.&XU.0X0X0X<X<X0X0X7X7X7X6X6X6X[.].A.C.$.-X0X|.|.0X,.$.-X%X` E.yXyXaXaXaXaXaXsXiXiXsXiXsXiXJ.=X{ S Z R.P q ,.. ",
"2.t.z p.{.^.w.9.S oXU.0X0X<XqX>X>X7X7X7X6X7X6X6X|.].%Xk.>.:XqX%.K.0X,.+.-X#XQ E.uXyXaXsXaXsXsXsXiXpXsXsXsXwXJ.{.{ w.S 4XP F L . ",
">.p.H 2._.s.S B A s.^.;X1X>X>X>X>X=X>X7X9X5X7X7X[.].$Xj._ ~.;Xx.p.*XH 4. X#X..J.uXuXsXuXuXiXiXiXpXeXiXpXeX5XJ._.{ <.H |.q D @.X ",
"dXp.v &.^.N.S w.w.r.^.&X;X>X;X;X;X>X>X=X9X=X{.5X}.A.%Xf.2 $.M.[ ;.i.v /. X$XX.2.wXuXaX5X5XeXiXeXeXeXqXeX8X|.T.s.W { t.R.G @.J dX",
"dXp.H M N.s.9.s.{ r.N.^.@X;X@X;X;X;X=X;X9X*X5.[.}.A.A.:.& z +.O.6.x T #X<X'.d.,.7XuX6XQ.F.9XeXeXwXqXqXwX7XP.{.t.t.{ K.P.u 4.v dX",
"dXw.( V s.B.8.S 9.S.S.s.OXoX+X+XoX+X;X*X|.).O.H.).A.$X$.D K n x ; + > n.1X>Xy.( 9X9X).d.5.}.7X0X0X0XeXqX>X2.qX<XrX&X{.3.m :.w dX",
"dX) ;.x ( m.g.k.S.S.l.k.n.Z.Z.Z.oX+X-X XV.A.) t.).A.-X/ 1.XXi.e.9 2 c &.+X1X+XO.{.9X XV.V./.!.>X<X0X0X0X{.P.<XqXrX>X`.m ! 7.& dX",
"dXdXe.j ~ m.(.g.j.j.l.k.k.n.M.n.].&X].M.4.OXo.&.].#X).v I.*XQ.N.] y _.`.t.;X1X^.Q.&X+Xg.A.1X!.).>X<X<X>Xt.+X<X<X<X&Xp.y )  .dXdX",
"dXdX#./ w =.`.).d.h.h.h.r.g.c.c.~.'.l.M 2.'.} O.'.:XP.m /.+X/.u.j %.+X$Xp.y./.;X).~.y.z { @XZ.$.;X:X>XR.L &X+X`.&X/.H v z.h dXdX",
"dXdXC *.n Y x./.Q. X-Xb.{ k.c.c.~.OX| 2.@Xn.! ,.#X.XF &./.].N.( Z N.OXOXN.e.:./. X/.r.O.;.!.V.k oX:X;XL |.0X X|./.u.- x ;.& dXdX",
"dXdXdX*.j , -.c..X9X.X-.T 0.h.c.b.l.T 5.OX8.F ~.-X).v z.M.C.M.c.n.Z.V.Z.Z.x.M.m.r.c.~.5./ ).c.f N.;Xs.H .X8X.X Xy.H t &.M dXdXdX",
"dXdXdXA *.m n c. X X$Xg.^ 8.h.h.z.l.Q j -.o.>.'..XQ.@.+.f.c.c.c.C.k.C.V./.[.-X;Xm.y @.O.&. X0.g /.^.Z s.<X#X}.Q.y.- 0 $.@ dXdXdX",
"dXdXdXdX#.j l =.~.~.$XV.' | 0.0.>.M.S.x.W.>.Q.+XQ./ ; y :.f.f.c.f.h.g.d.y z ,.OX-XU.P.W.W.OXT H /.Z r.W.:X$Xv.i.c 0 C c dXdXdXdX",
"dXdXdXdXg [ z d f.5. Xb.I ..0.| 8.' 0.M. XW.~.-.N ; / >.:.f.~.x.! -.7.d.-.-.^ ` 0.l.].+Xi.,.y a.H ..k.;.~.[.%.&.: e O.@ dXdXdXdX",
"dXdXdXdXdX/ ! k ! x.~.X.i o.X.| Q ..j m #.g z ; u +.>.>.*.v.&Xd.` ( =.d.7.7.7.' f k K y.M q %.V ` j.j. .c.v.4.- % A t dXdXdXdXdX",
"dXdXdXdXdXw ) r d *.x.X.p o.o.] ` T Q ~ e e Y '  .-.>.z.y.|.:Xh.0...V -...7.-.X.-.^ f u D %.v ^ j.j.j.h.c.x.x : A M X dXdXdXdXdX",
"dXdXdXdXdXdXy ) a > -.f./ E | ]  .Q l Q  .[ r.z.7.-.b. X'.|./.].g.d.r.x.n +.-.7.7.7.-.u.w.c v | 7.j.7.b.y.m % d C @ dXdXdXdXdXdX",
"dXdXdXdXdXdXdXg I k r =.5.T ] ] w.8 r ~ U | x.v.~.~.}.:X1X$XA.OX@XZ.n.N.x.f.u.e.f.:.*.b c m j [ X.X.7.b.H O w / ; dXdXdXdXdXdXdX",
"dXdXdXdXdXdXdXdXh k , g >.>.] r.B 7 ( B l ( W | 7.d.x.k.B.l.S.B.U.^.m.p.2.=.*.>. .v c a B 9.| Q E X.u.H O > ( u dXdXdXdXdXdXdXdX",
"dXdXdXdXdXdXdXdXO h h $ < ) =.3 1 Q B l x.{ 3 4 3 T R Q R R } *.O.C O.+.) ( V e 0 H ~ E U s r C j i.Z % > V u X dXdXdXdXdXdXdXdX",
"dXdXdXdXdXdXdXdXdX@ g l e & ! =.R 6 3 o.9.4 T 9.i ~ B 4 < d l k k j g a 0 A [ B > E j Q T U B A ,.x : : b t X dXdXdXdXdXdXdXdXdX",
"dXdXdXdXdXdXdXdXdXdX  r d d % g -...o.o.7 U r.8 f 9.~ 6 d { 0 n j i v ~ r T 8 1 l 9.T 4 Q v &.&.0 O : A u X dXdXdXdXdXdXdXdXdXdX",
"dXdXdXdXdXdXdXdXdXdXdXdX* h > e % _ f.X.U ~ { 1 _ W 7 3 U W < T 3 U T 9 3 f 8 3 ] 9 5 M C %.a & & e n - dXdXdXdXdXdXdXdXdXdXdXdX",
"dXdXdXdXdXdXdXdXdXdXdXdXdX& p r r ; w ( =.~ f h =.6 ^ 6 U E 2 ] 3 T U Q 3 E Q 6 E -.$.$.m % O : j a @ dXdXdXdXdXdXdXdXdXdXdXdXdX",
"dXdXdXdXdXdXdXdXdXdXdXdXdXdX  * f * i O w j *.=.~ B k 1 ! 6 2  .R [ p ` 3 ] ' ( r.%.x & & # < k $ X dXdXdXdXdXdXdXdXdXdXdXdXdXdX",
"dXdXdXdXdXdXdXdXdXdXdXdXdXdXdXdXO w i i w & $ $ m / *.-.*./ ' ) V ~ ) #.$.e.[ x :   # 1 s V t . dXdXdXdXdXdXdXdXdXdXdXdXdXdXdXdX",
"dXdXdXdXdXdXdXdXdXdXdXdXdXdXdXdXdXdXO * p p * > & # @ % $ e a a a y e ; % O % O 1 < h n u @ dXdXdXdXdXdXdXdXdXdXdXdXdXdXdXdXdXdX",
"dXdXdXdXdXdXdXdXdXdXdXdXdXdXdXdXdXdXdXdX  + w f r 2 * > & $ O # O % + # 1 > l k ! v $   dXdXdXdXdXdXdXdXdXdXdXdXdXdXdXdXdXdXdXdX",
"dXdXdXdXdXdXdXdXdXdXdXdXdXdXdXdXdXdXdXdXdXdXdX  & > p d U p f p I d k v Y h y % @ dXdXdXdXdXdXdXdXdXdXdXdXdXdXdXdXdXdXdXdXdXdXdX",
"dXdXdXdXdXdXdXdXdXdXdXdXdXdXdXdXdXdXdXdXdXdXdXdXdXdXdX      o o o O       dXdXdXdXdXdXdXdXdXdXdXdXdXdXdXdXdXdXdXdXdXdXdXdXdXdXdX"
};
