/* XPM */
static char *_887f98259004a65fddf11e45d681c18[] = {
/* columns rows colors chars-per-pixel */
"16 16 208 2 ",
"   c #A17D3B",
".  c #A5833F",
"X  c #A5843F",
"o  c #9D8342",
"O  c #A58641",
"+  c #A48642",
"@  c #A68742",
"#  c #A88843",
"$  c #A78B49",
"%  c #A48C4A",
"&  c #A98F48",
"*  c #AE914E",
"=  c #B19048",
"-  c #B49448",
";  c #B69C4D",
":  c #B89A4A",
">  c #B99C4B",
",  c #B89A4C",
"<  c #BB9D4C",
"1  c #BC9E4E",
"2  c #BE9E4F",
"3  c #B79952",
"4  c #B29C57",
"5  c #BA9C50",
"6  c #BC9D50",
"7  c #BF9E53",
"8  c #BF9F53",
"9  c #BBA251",
"0  c #BFA050",
"q  c #BAA054",
"w  c #BEA055",
"e  c #BFA055",
"r  c #BFA157",
"t  c #BEA159",
"y  c #BFA258",
"u  c #BAA45F",
"i  c #B4A361",
"p  c #B7A162",
"a  c #B3A166",
"s  c #C1A04B",
"d  c #C2A14C",
"f  c #C0A34C",
"g  c #C3A34D",
"h  c #CAAB4D",
"j  c #C8AB4E",
"k  c #C1A250",
"l  c #C2A352",
"z  c #C0A451",
"x  c #C2A651",
"c  c #C0A552",
"v  c #C0A456",
"b  c #C7A853",
"n  c #C7AC53",
"m  c #C5A957",
"M  c #CAAF51",
"N  c #C5A45A",
"B  c #C4A75A",
"V  c #C4A95F",
"C  c #C3AC5E",
"Z  c #C5AC5E",
"A  c #CDAE5E",
"S  c #CCAF5F",
"D  c #CDB053",
"F  c #CEB357",
"G  c #CDB75F",
"H  c #D5B156",
"J  c #D0B55D",
"K  c #D6B65F",
"L  c #C2AB62",
"P  c #C4AB61",
"I  c #C4AC61",
"U  c #C7AE62",
"Y  c #C6A867",
"T  c #C4AD67",
"R  c #C9AD63",
"E  c #CAAF62",
"W  c #C8AB64",
"Q  c #C9B060",
"!  c #CFB262",
"~  c #CBB366",
"^  c #CDB066",
"/  c #CEBC63",
"(  c #CAB16C",
")  c #CAB86C",
"_  c #CCB96C",
"`  c #D1B665",
"'  c #D5B767",
"]  c #D8BA64",
"[  c #D9BD66",
"{  c #DFBE64",
"}  c #D5B869",
"|  c #D1BB6F",
" . c #D4BA6E",
".. c #D5BF6F",
"X. c #CBB772",
"o. c #CBB871",
"O. c #CCB973",
"+. c #CCBB77",
"@. c #CFBE79",
"#. c #CEBE7C",
"$. c #CFBF7C",
"%. c #D3B970",
"&. c #D3BE71",
"*. c #D5BC75",
"=. c #DABF70",
"-. c #D6C66D",
";. c #DFC469",
":. c #D9C16E",
">. c #DDC06D",
",. c #DFC56C",
"<. c #DBCA6D",
"1. c #CEC175",
"2. c #D2C671",
"3. c #D0C077",
"4. c #DCC373",
"5. c #DAC671",
"6. c #D9C476",
"7. c #DCC675",
"8. c #DCC576",
"9. c #D4C875",
"0. c #DECB77",
"q. c #D1C17B",
"w. c #D4C77B",
"e. c #D1C27E",
"r. c #DBC47C",
"t. c #D4C87A",
"y. c #DCC878",
"u. c #D8C87D",
"i. c #DFCB7D",
"p. c #E0C162",
"a. c #E4C869",
"s. c #E6CB6E",
"d. c #E3C872",
"f. c #E7CF73",
"g. c #E0C874",
"h. c #E1C977",
"j. c #E0CA77",
"k. c #E1CD7E",
"l. c #E3CE7E",
"z. c #E6CD7C",
"x. c #EAD375",
"c. c #EAD476",
"v. c #E5D07B",
"b. c #E2D478",
"n. c #E8D37D",
"m. c #EAD57F",
"M. c #EAD87B",
"N. c #EBDE7E",
"B. c #D4C180",
"V. c #D6C581",
"C. c #D8C384",
"Z. c #DBC883",
"A. c #DFCC81",
"S. c #D8CE85",
"D. c #DCCE96",
"F. c #DFD295",
"G. c #E0CD84",
"H. c #E2D182",
"J. c #E0D382",
"K. c #E4D183",
"L. c #E7D582",
"P. c #E3D084",
"I. c #E7D685",
"U. c #E9D580",
"Y. c #E8D883",
"T. c #EADA86",
"R. c #EADD85",
"E. c #ECDC87",
"W. c #E3D288",
"Q. c #E5D388",
"!. c #E5D38B",
"~. c #E5D488",
"^. c #E7D78A",
"/. c #E9D588",
"(. c #E8D789",
"). c #E2D98A",
"_. c #EEDC88",
"`. c #E2DA90",
"'. c #E5DA90",
"]. c #E4D996",
"[. c #E5DE94",
"{. c #E7DF96",
"}. c #EADC93",
"|. c #EADD95",
" X c #E4D99B",
".X c #E8DF98",
"XX c #F0E68E",
"oX c #EBE093",
"OX c #EDE393",
"+X c #E8E195",
"@X c #EAE39A",
"#X c #F2E890",
"$X c #F2E898",
"%X c #E5DCA6",
"&X c #E8E2A0",
"*X c #EDE2A2",
"=X c #F5EFA1",
"-X c #F0E8A5",
";X c #F2E9A5",
":X c #F3EFA6",
">X c #F4EEA5",
",X c #F4EEA8",
"<X c #F5F0A6",
"1X c #F7F1A9",
"2X c #EFEAB5",
"3X c #F5F2B7",
"4X c #F7F4B4",
"5X c None",
/* pixels */
"5X5X5X5X5Xo.T L I U ~ 5X5X5X5X5X",
"5X5X5XO.Z y 9 ; > l 8 w N 5X5X5X",
"5X5Xo.C n h k v e 2 : , 6 w 5X5X",
"5X@.) / ! [ } ^ W Y N g b R 3 5X",
"5X+.6.J.R.M.8.r.*.(  .} K >.y 5X",
"$.e.'.@X}.l.J.V.B.Z.G.j.f.a.` * ",
"$.S.[.:X^.k.T.F.D.^.W.v.XXN.<.4 ",
"q.t.`.:X.X].T.!.C.!.%X X<X+X2.i ",
"3.9.).=X:X-X_.^.k.!.2X3X3X@X1.a ",
") -.f.#X$X}.Y.| &.L.*X;X1X{.w.p ",
"I :.x.x.m.j.k.y.5.Y.K.L.OX+Xu.t ",
"5XQ z.p.;.4. .d.s.g.8...j.P.u 5X",
"5X6 S H D S =.n.,.[ ! Z { V % 5X",
"5X5X= k j M F J Q m x 0 q $ 5X5X",
"5X5X5X+ - < f s g g 2 & o 5X5X5X",
"5X5X5X5X5X  X + + # + 5X5X5X5X5X"
};
