/* XPM */
static char *_b4a04f5875443f0f4876f1853b885af[] = {
/* columns rows colors chars-per-pixel */
"32 32 191 2 ",
"   c #987739",
".  c #A17D3B",
"X  c #9E7D40",
"o  c #A5823E",
"O  c #B69A3E",
"+  c #9E8144",
"@  c #A38543",
"#  c #A58943",
"$  c #AB8A43",
"%  c #A48B4D",
"&  c #A98C4B",
"*  c #A98741",
"=  c #AD934C",
"-  c #B29345",
";  c #B29942",
":  c #B3944C",
">  c #B6994D",
",  c #BA9B4D",
"<  c #BE9B47",
"1  c #A78F58",
"2  c #AB9452",
"3  c #A8925A",
"4  c #B49652",
"5  c #B59C54",
"6  c #BB9D53",
"7  c #B39D58",
"8  c #BC9D5B",
"9  c #BEA247",
"0  c #BEA54D",
"q  c #B9A54A",
"w  c #BDA153",
"e  c #B6A35E",
"r  c #BCA45C",
"t  c #BBA458",
"y  c #B59C60",
"u  c #BCA562",
"i  c #B6A46B",
"p  c #BCAB6B",
"a  c #BBA867",
"s  c #BDAD70",
"d  c #C39D44",
"f  c #C19C4C",
"g  c #C19E53",
"h  c #C09F5A",
"j  c #C3A345",
"k  c #CCAA42",
"l  c #C3A44C",
"z  c #C3AA4C",
"x  c #C7A749",
"c  c #D2AC4F",
"v  c #CBB14A",
"b  c #D4B148",
"n  c #C3A354",
"m  c #C6A952",
"M  c #CBAB55",
"N  c #C3A65A",
"B  c #C5AA5C",
"V  c #CBAC5D",
"C  c #C8A75D",
"Z  c #D1AF5A",
"A  c #CCB155",
"S  c #C7B75D",
"D  c #CBB15E",
"F  c #CCBE5E",
"G  c #C4B450",
"H  c #D4B152",
"J  c #D3B25B",
"K  c #DBBA5C",
"L  c #DBB453",
"P  c #E5BE5E",
"I  c #C2A560",
"U  c #C4AB63",
"Y  c #CBAD62",
"T  c #C5AB6B",
"R  c #CAAD6D",
"E  c #C7B463",
"W  c #CDB164",
"Q  c #CABB64",
"!  c #C6B26B",
"~  c #CDB369",
"^  c #CCB96C",
"/  c #C7B965",
"(  c #D5B963",
")  c #DBBC65",
"_  c #D2BC6B",
"`  c #DABC6C",
"'  c #D2B467",
"]  c #C5AB71",
"[  c #C4B376",
"{  c #CDB672",
"}  c #CCBB73",
"|  c #CDBD7A",
" . c #D3BD74",
".. c #D3BA7A",
"X. c #E2C35B",
"o. c #CEC36C",
"O. c #CCC063",
"+. c #DDC162",
"@. c #DCC36E",
"#. c #DDCC6A",
"$. c #D5C368",
"%. c #CFC17E",
"&. c #D2C175",
"*. c #DBC474",
"=. c #DBCC73",
"-. c #D4C47C",
";. c #DAC57B",
":. c #DBCC7B",
">. c #D5CB7E",
",. c #DFD276",
"<. c #E3C465",
"1. c #E2C36B",
"2. c #E5CC6C",
"3. c #EAC96B",
"4. c #EDD66D",
"5. c #F1D56C",
"6. c #E2C673",
"7. c #E3CC74",
"8. c #EACD73",
"9. c #E1CB7B",
"0. c #E8CD7A",
"q. c #E0C77B",
"w. c #EAD275",
"e. c #EDDA75",
"r. c #E4D27C",
"t. c #EBD47E",
"y. c #EDDD7C",
"u. c #F1DE7A",
"i. c #F1DB77",
"p. c #F1E37C",
"a. c #F2E077",
"s. c #CAB988",
"d. c #D3C482",
"f. c #DCC683",
"g. c #DBCC84",
"h. c #DBCE8C",
"j. c #D6C881",
"k. c #DCD285",
"l. c #DDD48C",
"z. c #DBCC93",
"x. c #DACA98",
"c. c #DDD393",
"v. c #E3CE83",
"b. c #E0C88C",
"n. c #E4D584",
"m. c #ECD784",
"M. c #E5D983",
"N. c #EBD984",
"B. c #E3D48B",
"V. c #E9D48A",
"C. c #E3DB8E",
"Z. c #EDDB8B",
"A. c #F1DF85",
"S. c #F2DE8C",
"D. c #F0D780",
"F. c #E4DB95",
"G. c #EBDC94",
"H. c #E5DF99",
"J. c #ECDC9B",
"K. c #E7D590",
"L. c #F1DD94",
"P. c #EEE38B",
"I. c #F2E283",
"U. c #F2E38B",
"Y. c #F3E88B",
"T. c #ECE193",
"R. c #EAE39B",
"E. c #EFE89D",
"W. c #F1E492",
"Q. c #F5EB94",
"!. c #F2E699",
"~. c #F4EC9C",
"^. c #FAF09B",
"/. c #E4DDAA",
"(. c #E9DCA5",
"). c #EEE8AB",
"_. c #EEE7A5",
"`. c #F3EDA4",
"'. c #F2EDAA",
"]. c #F0E6A2",
"[. c #F6F1A4",
"{. c #F8F2A7",
"}. c #F6F3AA",
"|. c #F8F4AC",
" X c #EDE9B6",
".X c #F2EDB1",
"XX c #F0EDBB",
"oX c #F7F4B4",
"OX c #F8F5B4",
"+X c #F4F2BA",
"@X c None",
/* pixels */
"@X@X@X@X@X@X@X@X@X@X@X@Xv.-.&.} }  .*.,.@X@X@X@X@X@X@X@X@X@X@X@X",
"@X@X@X@X@X@X@X@X@XB.| u 2 = : : > > : 4 r ^ *.@X@X@X@X@X@X@X@X@X",
"@X@X@X@X@X@X@XB.} 7 > N N N r 5 , n C N n , 4 Y @X@X@X@X@X@X@X@X",
"@X@X@X@X@X@Xg.e 6 D N 6 q q ; O ; O m l 6 n n - 6 W @X@X@X@X@X@X",
"@X@X@X@X@X-.5 B V v b k ; ; , , , < , ; ; 4 , n , : V @X@X@X@X@X",
"@X@X@X@X-.8 E B G z 9 Z M n g ] I , f f f : - : 6 n - N @X@X@X@X",
"@X@X@Xg.e ^ / G z B V Z ) d.M { 8 C s.h g g d : 6 n C = 6 @X@X@X",
"@X@XB.p o.{ #.S _ ( <.0.1.C V ' C ~ h R ~ C M l 9 L v.B 4 @X@X@X",
"@X@X| [ n.*.N.M.=.a.a.@.D q.:.q.*.;.{ u 8 ' ' V H J m.6., 4 @X@X",
"@Xk.p j.*.W g.k.!.Q.Y.p.r.;.f.f. . .T ~ 6.q.` ` ( J J 6.W : & @X",
"@X%.{ | &.C.l.E.[.J.0.r.N.-. . .T ~ T B.J.v.9.6.6.+.) J *.5 - @X",
"@X[ d.d.~.`.H.{.!.| ..9.Z.g.} c.c.d.d.L.f.} r.#.u.i.5.5.1.Y 4 @X",
"g.] h.C.~.H.'.}.W._ ..Z.U.t.d. X/.x.D.L.-.T.N.*.Y.Y.y.p.e.=.5 + ",
"d.[ l.o.>.H.}.}.!.t.:.@.W.t.d.(.s.x.S.7.z.M.5.;.~.Q.P.,.F ,.e & ",
"%.| l./ g.H.}.}.K.} | c.M.I.n.b.] x.S.*./.h.Q %.`.`.E.M.S ,.a 2 ",
"&.%.k.O.C.R.}.{.`.'.`.).V.I.Z.F.q. .S.f. XXX X.XOX|.'.F.O.>.p 1 ",
"&.%.k.O.k.R.[.[.}.'.'.).Z.u.B.G.v. .U.f. X+X+X+XOXOX.XF.o.-.p 3 ",
"&.} k.S >.T.^.[.[.`._._.L.a.n.G.K. .S.;. XXX+XoXOXOX.Xc./ %.i 3 ",
"} ! r.S $.P.Q.Q.~.~.].R.S.e._ 7.;. .S.;..X.X'.oXOX|._.k./ d.i 1 ",
"_ B ,.O.#.y.Y.Y.U.!.L.f.A.7.y I 4 $.Y.*.].K.K.[.}.{.H.T.n.>.a & ",
"@XB o.w.5.4.e.t.P.Z.t._ A...g.q.n &.P.m.K.N.A.G.^.~.l.^.~.{ D @X",
"@XB N v.t.8.#.8.D.@.7._ Z.{ N.7._ I.0.M.m._ 7.6.U.C.F.L.n.e N @X",
"@Xr n ` L.t.K 2.8.( 1.*.V.~ 8.8.e.u.t.M.*. .*.( n.-.!.Z.! 7 % @X",
"@X@Xw N 0.t.H X.+.2.q.q.T N ` 7.) <.Y @.7.v.;.E _ 2.A. .2 2 @X@X",
"@X@X@X6 V 1.c L H m w 6 V ` ;.D.K ( ) ) Z U a B X.3.6.7 = @X@X@X",
"@X@X@X> > Z Z L A x A @.6.m.U.I.e.7.( +.) D e m P 1.e = @ @X@X@X",
"@X@X@X@X- - N Z z 0 A m J +.+.#. ._ W B t w 0 m J u $ & @X@X@X@X",
"@X@X@X@X@X$ $ , A b v v l 9 < , > , > 9 j x z t 2 # @ @X@X@X@X@X",
"@X@X@X@X@X@X@ * - M M l v j j d d k d k H N 5 @ # + @X@X@X@X@X@X",
"@X@X@X@X@X@X@X@X. o $ 4 w n n n n n M N 7 # o # @X@X@X@X@X@X@X@X",
"@X@X@X@X@X@X@X@X@X  . o o o @ # @ @ @ * $ $ X @X@X@X@X@X@X@X@X@X",
"@X@X@X@X@X@X@X@X@X@X@X@X  . . . . o @ X @X@X@X@X@X@X@X@X@X@X@X@X"
};
